# xmcd
#
# Track frame offsets: 
#        150
#        12325
#        26537
#        44955
#        61480
#        79392
#        95835
#        112172
#        131145
#        148837
#
# Disc length: 2204 seconds
#
# Revision: 7
# Processed by: cddbd v1.5.2PL0 Copyright (c) Steve Scherf et al.
# Submitted via: ExactAudioCopy v0.99pb5
#
DISCID=9d089a0a
DTITLE=Doug Supernaw - Deep Thoughts From A Shallow Mind
DYEAR=1994
DGENRE=Country
TTITLE0=What'll You Do About Me
TTITLE1=Here's To Lying
TTITLE2=You Never Even Called Me By My Name
TTITLE3=State Fair
TTITLE4=Twistin' Tops
TTITLE5=Mesquite Cowboy Mind
TTITLE6=He Went To Paris
TTITLE7=Shut'er Down
TTITLE8=After The Storm
TTITLE9=Wishin' Her Well
EXTD=
EXTT0=
EXTT1=
EXTT2=
EXTT3=
EXTT4=
EXTT5=
EXTT6=
EXTT7=
EXTT8=
EXTT9=
PLAYORDER=
